<?xml version="1.0" encoding="utf-8"?>
<!-- Generator: Adobe Illustrator 16.0.0, SVG Export Plug-In . SVG Version: 6.00 Build 0)  -->
<!DOCTYPE svg PUBLIC "-//W3C//DTD SVG 1.1//EN" "http://www.w3.org/Graphics/SVG/1.1/DTD/svg11.dtd">
<svg version="1.1" id="Layer_1" xmlns="http://www.w3.org/2000/svg" xmlns:xlink="http://www.w3.org/1999/xlink" x="0px" y="0px"
	 width="200px" height="73.685px" viewBox="0 0 200 73.685" enable-background="new 0 0 200 73.685" xml:space="preserve">
<g>
	<g>
		<path fill="#6A9923" d="M41.183,18.813l-2.826-4.269h-3.991c-1.831-0.003-3.521,0.895-4.466,2.376l-2.637,4.033l9.371,5.605
			L41.183,18.813z"/>
		<path fill="#88B337" d="M56.124,22.239l-3.277-5.298c-0.834-1.476-2.478-2.405-4.263-2.4H38.356l7.667,13.607l-4.262,2.406
			l12.689,1.354l6.072-11.761L56.124,22.239z"/>
		<path fill="#6A9923" d="M61.369,31.352l-10.23,5.603l4.262,7.207h6.828l1.783-2.702c0.989-1.507,1.04-3.397,0.122-4.936
			L61.369,31.352z"/>
		<path fill="#88B337" d="M45.164,44.162v-4.007l-8.53,8.806l8.53,10.404v-3.202h6.829c1.795,0.044,3.455-0.888,4.258-2.399
			l5.978-9.602H45.164L45.164,44.162z"/>
		<path fill="#6A9923" d="M23.845,44.966l-2.076,4.491l2.6,4.217c0.958,1.527,2.705,2.474,4.599,2.489h3.405V44.966H23.845z"/>
		<path fill="#88B337" d="M34.082,37.756l-5.117-10.405l-13.651,0.801l4.876,2.841l-3.165,5.967c-0.88,1.497-0.88,3.306,0,4.803
			l4.744,7.694l1.787-2.894l6.336-10.325L34.082,37.756z"/>
	</g>
	<g enable-background="new    ">
		<path fill="#FFFFFF" d="M70.239,30.449h4.518c1.57,0,2.716,0.342,3.437,1.027c0.721,0.686,1.081,1.739,1.081,3.161v1.118
			c0,1.891-0.665,3.088-1.996,3.591v0.052c0.739,0.208,1.261,0.633,1.566,1.274c0.305,0.642,0.457,1.5,0.457,2.575v3.2
			c0,0.521,0.018,0.94,0.056,1.262c0.037,0.321,0.129,0.637,0.277,0.949h-3.104c-0.111-0.295-0.185-0.572-0.222-0.832
			c-0.038-0.261-0.056-0.729-0.056-1.405v-3.33c0-0.832-0.143-1.413-0.43-1.742s-0.781-0.494-1.483-0.494h-1.053v7.804h-3.049
			V30.449z M74.397,38.253c0.61,0,1.067-0.147,1.372-0.442c0.305-0.295,0.457-0.789,0.457-1.482v-1.405
			c0-0.659-0.125-1.136-0.374-1.431s-0.642-0.442-1.178-0.442h-1.386v5.203H74.397z"/>
		<path fill="#FFFFFF" d="M82.102,30.449h8.315v2.601h-5.267v4.813h4.186v2.602h-4.186v5.593h5.267v2.602h-8.315V30.449z"/>
		<path fill="#FFFFFF" d="M93.813,47.748c-0.767-0.78-1.15-1.882-1.15-3.304v-9.782c0-1.422,0.383-2.523,1.15-3.304
			c0.767-0.78,1.88-1.17,3.339-1.17s2.574,0.39,3.34,1.17c0.768,0.781,1.15,1.882,1.15,3.304v1.925h-2.883V34.48
			c0-1.127-0.508-1.691-1.523-1.691c-1.018,0-1.525,0.564-1.525,1.691v10.172c0,1.109,0.508,1.665,1.525,1.665
			c1.016,0,1.523-0.556,1.523-1.665v-2.784h2.883v2.576c0,1.422-0.383,2.523-1.15,3.304c-0.766,0.78-1.881,1.17-3.34,1.17
			S94.58,48.528,93.813,47.748z"/>
		<path fill="#FFFFFF" d="M104.165,30.449h3.049v18.209h-3.049V30.449z"/>
		<path fill="#FFFFFF" d="M111.135,47.748c-0.768-0.78-1.15-1.882-1.15-3.304v-9.782c0-1.422,0.383-2.523,1.15-3.304
			c0.767-0.78,1.88-1.17,3.34-1.17c1.459,0,2.573,0.39,3.34,1.17c0.767,0.781,1.15,1.882,1.15,3.304v1.925h-2.883V34.48
			c0-1.127-0.509-1.691-1.524-1.691c-1.017,0-1.524,0.564-1.524,1.691v10.172c0,1.109,0.508,1.665,1.524,1.665
			c1.016,0,1.524-0.556,1.524-1.665v-2.784h2.883v2.576c0,1.422-0.384,2.523-1.15,3.304s-1.881,1.17-3.34,1.17
			C113.015,48.918,111.902,48.528,111.135,47.748z"/>
		<path fill="#FFFFFF" d="M121.488,30.449h3.049v15.608h5.017v2.602h-8.065V30.449z"/>
		<path fill="#FFFFFF" d="M134.181,30.449h4.13l3.16,18.209h-3.049l-0.555-3.616v0.053h-3.465l-0.554,3.563h-2.827L134.181,30.449z
			 M137.507,42.623l-1.358-9.001h-0.055l-1.331,9.001H137.507z"/>
		<path fill="#FFFFFF" d="M143.632,30.449h3.824l2.966,10.9h0.056v-10.9h2.716v18.209h-3.132l-3.658-13.293h-0.056v13.293h-2.716
			V30.449z"/>
		<path fill="#FFFFFF" d="M156.16,30.449h4.656c1.515,0,2.651,0.381,3.409,1.145c0.757,0.763,1.137,1.882,1.137,3.355v9.209
			c0,1.474-0.38,2.593-1.137,3.355c-0.758,0.764-1.895,1.145-3.409,1.145h-4.656V30.449z M160.76,46.057
			c0.499,0,0.882-0.139,1.15-0.416c0.268-0.277,0.401-0.729,0.401-1.353v-9.469c0-0.625-0.134-1.075-0.401-1.353
			c-0.269-0.277-0.651-0.417-1.15-0.417h-1.552v13.007H160.76z"/>
		<path fill="#FFFFFF" d="M169.076,47.722c-0.795-0.798-1.191-1.925-1.191-3.382v-9.573c0-1.457,0.396-2.583,1.191-3.381
			c0.794-0.798,1.94-1.197,3.437-1.197c1.497,0,2.643,0.399,3.438,1.197c0.794,0.798,1.191,1.925,1.191,3.381v9.573
			c0,1.457-0.397,2.584-1.191,3.382c-0.795,0.798-1.94,1.196-3.438,1.196C171.016,48.918,169.87,48.52,169.076,47.722z
			 M174.092,44.522v-9.938c0-1.197-0.526-1.795-1.58-1.795c-1.053,0-1.579,0.599-1.579,1.795v9.938c0,1.196,0.526,1.795,1.579,1.795
			C173.566,46.317,174.092,45.719,174.092,44.522z"/>
	</g>
</g>
</svg>
