<?xml version="1.0" encoding="utf-8"?>
<!-- Generator: Adobe Illustrator 16.0.0, SVG Export Plug-In . SVG Version: 6.00 Build 0)  -->
<!DOCTYPE svg PUBLIC "-//W3C//DTD SVG 1.1//EN" "http://www.w3.org/Graphics/SVG/1.1/DTD/svg11.dtd">
<svg version="1.1" id="Layer_1" xmlns="http://www.w3.org/2000/svg" xmlns:xlink="http://www.w3.org/1999/xlink" x="0px" y="0px"
	 width="400px" height="400px" viewBox="0 0 400 400" enable-background="new 0 0 400 400" xml:space="preserve">
<g>
	<g>
		<g>
			<path fill="#FFFFFF" d="M340.812,333.153h-9.979V177.234c0-34.703-13.514-67.332-38.053-91.879
				c-23.038-23.038-53.207-36.357-85.533-37.899V31.413c0-3.786-3.07-6.856-6.855-6.856c-3.787,0-6.855,3.07-6.855,6.856v16.099
				c-32.025,1.783-61.879,15.136-84.684,38.027c-24.424,24.52-37.875,57.085-37.875,91.695v155.919H59.974
				c-3.787,0-6.856,3.07-6.856,6.856v28.652c0,3.785,3.069,6.855,6.856,6.855h280.838c3.786,0,6.856-3.07,6.856-6.855V340.01
				C347.667,336.223,344.599,333.153,340.812,333.153z M200.394,117.137c12.663,0,22.967,10.303,22.967,22.967
				s-10.304,22.967-22.967,22.967c-12.665,0-22.967-10.303-22.967-22.967S187.729,117.137,200.394,117.137z M84.69,177.234
				c0-61.515,48.238-112.167,108.847-115.982v42.825c-16.958,3.22-29.823,18.145-29.823,36.025
				c0,20.226,16.454,36.678,36.678,36.678c20.225,0,36.679-16.453,36.679-36.678c0-17.881-12.865-32.806-29.823-36.025V61.189
				c28.66,1.53,55.389,13.414,75.836,33.861c21.95,21.956,34.037,51.143,34.037,82.184v155.918H84.69V177.234z M333.956,361.806
				L333.956,361.806H66.829v-14.94h267.127V361.806z"/>
		</g>
	</g>
	<g>
		<g>
			<path fill="#FFFFFF" d="M302.049,205.057c-8.857,0-8.872,13.766,0,13.766C310.905,218.822,310.921,205.057,302.049,205.057z"/>
		</g>
	</g>
	<g>
		<g>
			<path fill="#FFFFFF" d="M302.049,225.477c-3.802,0-6.883,3.082-6.883,6.883v41.291c0,3.803,3.082,6.884,6.883,6.884
				c3.802,0,6.883-3.082,6.883-6.884v-41.291C308.932,228.559,305.85,225.477,302.049,225.477z"/>
		</g>
	</g>
	<path fill="#FFFFFF" d="M250.924,220.21l-5.567,2.613l-0.052-0.084c-9.956-16.46-27.813-26.497-47.05-26.444
		c-13.703,0-27.242,5.002-38.383,15.654c-1.432,1.353-1.497,3.61-0.145,5.043c1.354,1.432,3.61,1.496,5.043,0.144
		c0.012-0.01,0.021-0.021,0.033-0.031c9.72-9.302,21.588-13.666,33.451-13.666c16.498-0.027,31.844,8.455,40.594,22.441l-5.82,2.732
		c-0.893,0.419-1.277,1.482-0.857,2.375c0.193,0.413,0.539,0.737,0.965,0.904l13.378,5.237c0.919,0.359,1.954-0.094,2.313-1.013
		c0.012-0.029,0.023-0.059,0.033-0.089l4.518-13.637c0.312-0.936-0.194-1.947-1.131-2.259
		C251.813,219.987,251.339,220.016,250.924,220.21L250.924,220.21z"/>
	<path fill="#FFFFFF" d="M248.487,245.665c-1.444,0.526-2.384,1.925-2.326,3.461c0.999,22.022-13.076,41.914-34.176,48.3
		l-2.299-7.674c-0.283-0.944-1.279-1.48-2.225-1.196c-0.436,0.131-0.807,0.425-1.033,0.82l-7.148,12.46
		c-0.49,0.855-0.194,1.946,0.662,2.436c0.025,0.016,0.053,0.03,0.08,0.044l12.824,6.478c0.881,0.445,1.954,0.092,2.398-0.788
		c0.207-0.408,0.248-0.88,0.117-1.317l-1.325-4.426c22.711-6.795,40.169-28.271,39.228-55.401c-0.078-1.962-1.732-3.489-3.695-3.41
		C249.2,245.465,248.835,245.537,248.487,245.665L248.487,245.665z"/>
	<path fill="#FFFFFF" d="M188.005,304.292c-23.451-5.339-37.751-25.341-37.751-46.854c-0.003-4.793,0.717-9.561,2.133-14.139
		l6.751,2.182c0.938,0.304,1.945-0.212,2.248-1.15c0.141-0.434,0.109-0.906-0.088-1.318l-6.197-12.961
		c-0.426-0.89-1.492-1.266-2.381-0.84c-0.029,0.014-0.058,0.027-0.086,0.043l-12.612,6.878c-0.866,0.474-1.185,1.558-0.712,2.424
		c0.219,0.4,0.583,0.703,1.018,0.843l5.262,1.703l-0.002,0.009c-5.642,18.177-1.496,37.977,10.963,52.362
		c7.617,8.803,17.593,15.002,29.905,17.787c1.927,0.435,3.839-0.775,4.272-2.702c0.059-0.257,0.088-0.52,0.088-0.784
		C190.808,306.099,189.641,304.652,188.005,304.292z"/>
	<g>
		<path fill="#FFFFFF" d="M184.075,264.971c-0.119,0-0.236-0.021-0.346-0.064l-10.272-3.923c-0.036-0.014-0.069-0.029-0.103-0.046
			c-4.75-2.282-7.912-5.764-9.402-10.349c-3.424-10.531,2.978-24.231,5.888-29.634l0.721-1.334c0.565-1.049,1.876-1.44,2.925-0.874
			c0.036,0.02,0.072,0.04,0.106,0.062l1.292,0.793c5.223,3.224,17.617,11.889,19.918,22.721c0.996,4.693,0.012,9.268-2.925,13.599
			c-0.026,0.047-0.058,0.091-0.092,0.133l-0.729-0.556v0.001l0.71,0.578l-6.935,8.532
			C184.646,264.838,184.368,264.971,184.075,264.971L184.075,264.971z M174.188,259.18l9.581,3.658l6.467-7.96
			c2.654-3.891,3.551-7.979,2.664-12.15c-2.146-10.099-14.028-18.377-19.037-21.468l-1.289-0.795
			c-0.05-0.031-0.111-0.039-0.168-0.024s-0.104,0.053-0.131,0.104l-0.721,1.333c-2.793,5.181-8.941,18.292-5.751,28.109
			C167.12,254.045,169.942,257.138,174.188,259.18z"/>
		<path fill="#FFFFFF" d="M181.983,280.849c-0.537,0-0.973-0.436-0.972-0.973c0-0.171,0.045-0.338,0.13-0.485
			c2.662-4.58,3.379-10.035,1.994-15.148l-10.033-37.443c-0.154-0.515,0.139-1.056,0.652-1.21c0.516-0.153,1.057,0.138,1.211,0.652
			c0.006,0.019,0.011,0.038,0.016,0.057l10.031,37.44c1.521,5.611,0.732,11.598-2.188,16.624
			C182.651,280.663,182.331,280.849,181.983,280.849L181.983,280.849z"/>
		<path fill="#FFFFFF" d="M179.347,247.259c-0.536,0-0.971-0.436-0.971-0.973c0-0.171,0.045-0.338,0.13-0.485l5.252-9.095
			c0.269-0.466,0.864-0.625,1.329-0.356s0.625,0.864,0.355,1.329l0,0l-5.252,9.094C180.017,247.074,179.695,247.259,179.347,247.259
			L179.347,247.259z"/>
		<path fill="#FFFFFF" d="M181.804,256.495c-0.171,0-0.339-0.045-0.486-0.13l-11.683-6.746c-0.467-0.266-0.63-0.859-0.364-1.326
			c0.265-0.468,0.859-0.631,1.326-0.365c0.003,0.003,0.007,0.004,0.012,0.007l11.682,6.746c0.466,0.268,0.625,0.863,0.356,1.328
			C182.474,256.311,182.151,256.495,181.804,256.495L181.804,256.495z"/>
		<path fill="#FFFFFF" d="M176.997,238.368c-0.17,0-0.338-0.044-0.486-0.13l-6.605-3.814c-0.467-0.266-0.631-0.859-0.365-1.326
			c0.266-0.468,0.859-0.631,1.326-0.365c0.004,0.002,0.008,0.005,0.012,0.006l6.607,3.815c0.465,0.268,0.625,0.862,0.357,1.328
			c-0.174,0.302-0.496,0.487-0.844,0.486H176.997z"/>
	</g>
	<path fill="#FFFFFF" d="M212.837,281.225c-3.615-0.05-7.131-1.201-10.074-3.302c-0.045-0.025-0.086-0.054-0.126-0.085l-8.563-6.959
		c-0.326-0.266-0.445-0.709-0.295-1.103l3.923-10.271l0.003-0.008l0.014-0.034c0.018-0.045,0.037-0.087,0.061-0.129
		c2.283-4.711,5.752-7.852,10.316-9.337c10.531-3.425,24.232,2.977,29.635,5.889l1.334,0.721c1.049,0.566,1.439,1.877,0.873,2.926
		c-0.02,0.035-0.039,0.07-0.061,0.104l-0.795,1.29c-3.223,5.223-11.888,17.617-22.721,19.918
		C215.202,281.095,214.021,281.223,212.837,281.225z M203.804,276.279c3.891,2.655,7.981,3.553,12.152,2.666
		c10.098-2.145,18.379-14.026,21.47-19.035l0.793-1.291c0.032-0.049,0.04-0.11,0.024-0.166c-0.014-0.058-0.053-0.105-0.104-0.133
		l-1.333-0.721c-5.18-2.792-18.293-8.942-28.108-5.75c-4.057,1.318-7.149,4.139-9.191,8.383l-3.659,9.581L203.804,276.279z"/>
	<path fill="#FFFFFF" d="M181.983,280.849c-0.537,0-0.973-0.436-0.972-0.973c0-0.171,0.045-0.338,0.13-0.485
		c2.895-5.043,7.685-8.718,13.305-10.207l37.439-10.032c0.516-0.149,1.055,0.148,1.205,0.664c0.148,0.517-0.149,1.056-0.666,1.204
		c-0.012,0.004-0.023,0.007-0.035,0.01l-37.44,10.032c-5.12,1.357-9.485,4.706-12.122,9.301
		C182.653,280.664,182.331,280.85,181.983,280.849z"/>
	<path fill="#FFFFFF" d="M212.388,266.337c-0.537-0.001-0.973-0.437-0.972-0.974c0.001-0.171,0.046-0.338,0.13-0.485l5.253-9.095
		c0.266-0.467,0.859-0.63,1.326-0.364c0.468,0.266,0.63,0.859,0.364,1.326c-0.002,0.004-0.004,0.008-0.006,0.011l-5.252,9.095
		C213.058,266.151,212.735,266.337,212.388,266.337z"/>
	<path fill="#FFFFFF" d="M214.845,275.571c-0.171,0-0.338-0.046-0.486-0.131l-11.684-6.745c-0.467-0.266-0.631-0.859-0.365-1.326
		s0.859-0.63,1.326-0.365c0.004,0.002,0.008,0.005,0.012,0.007l11.684,6.745c0.465,0.268,0.625,0.863,0.357,1.328
		C215.515,275.386,215.192,275.572,214.845,275.571z"/>
	<path fill="#FFFFFF" d="M227.87,267.738c-0.172,0.001-0.34-0.044-0.487-0.13l-6.606-3.814c-0.464-0.271-0.619-0.867-0.348-1.331
		c0.269-0.459,0.857-0.617,1.32-0.354l6.606,3.814c0.466,0.27,0.624,0.863,0.356,1.329
		C228.538,267.554,228.217,267.738,227.87,267.738L227.87,267.738z"/>
</g>
</svg>
