<?xml version="1.0" encoding="utf-8"?>
<!-- Generator: Adobe Illustrator 16.0.0, SVG Export Plug-In . SVG Version: 6.00 Build 0)  -->
<!DOCTYPE svg PUBLIC "-//W3C//DTD SVG 1.1//EN" "http://www.w3.org/Graphics/SVG/1.1/DTD/svg11.dtd">
<svg version="1.1" id="Layer_1" xmlns="http://www.w3.org/2000/svg" xmlns:xlink="http://www.w3.org/1999/xlink" x="0px" y="0px"
	 width="400px" height="400px" viewBox="0 0 400 400" enable-background="new 0 0 400 400" xml:space="preserve">
<g>
	<g>
		<g>
			<path fill="#FFFFFF" d="M339.605,333.116h-9.979V177.197c0-34.703-13.514-67.332-38.053-91.879
				c-23.038-23.038-53.207-36.357-85.533-37.899V31.376c0-3.786-3.07-6.856-6.855-6.856c-3.787,0-6.856,3.07-6.856,6.856v16.099
				c-32.025,1.783-61.879,15.136-84.683,38.027c-24.424,24.52-37.875,57.085-37.875,91.695v155.919H58.768
				c-3.787,0-6.856,3.07-6.856,6.856v28.652c0,3.785,3.07,6.855,6.856,6.855h280.838c3.786,0,6.856-3.07,6.856-6.855v-28.652
				C346.461,336.186,343.393,333.116,339.605,333.116z M199.187,117.1c12.664,0,22.967,10.303,22.967,22.967
				s-10.304,22.967-22.967,22.967c-12.665,0-22.967-10.303-22.967-22.967S186.522,117.1,199.187,117.1z M83.484,177.197
				c0-61.515,48.239-112.167,108.847-115.982v42.825c-16.958,3.22-29.823,18.145-29.823,36.025
				c0,20.226,16.454,36.678,36.678,36.678s36.678-16.453,36.678-36.678c0-17.881-12.865-32.806-29.823-36.025V61.152
				c28.66,1.53,55.389,13.414,75.836,33.861c21.95,21.956,34.037,51.143,34.037,82.184v155.918H83.484V177.197z M332.75,361.769
				L332.75,361.769H65.623v-14.94H332.75V361.769z"/>
		</g>
	</g>
	<g>
		<g>
			<path fill="#FFFFFF" d="M300.843,244.02c-8.857,0-8.872,13.766,0,13.766C309.699,257.785,309.715,244.02,300.843,244.02z"/>
		</g>
	</g>
	<g>
		<g>
			<path fill="#FFFFFF" d="M300.843,264.439c-3.802,0-6.883,3.082-6.883,6.883v41.291c0,3.803,3.082,6.884,6.883,6.884
				c3.802,0,6.883-3.082,6.883-6.884v-41.291C307.726,267.521,304.644,264.439,300.843,264.439z"/>
		</g>
	</g>
	<path fill="#FFFFFF" d="M255.286,224.521l-5.567,2.613l-0.052-0.084c-9.956-16.46-27.813-26.497-47.05-26.444
		c-13.703,0-27.242,5.002-38.383,15.654c-1.432,1.353-1.497,3.61-0.144,5.043c1.353,1.432,3.61,1.496,5.042,0.144
		c0.011-0.01,0.022-0.021,0.033-0.031c9.72-9.302,21.587-13.666,33.451-13.666c16.498-0.027,31.844,8.455,40.594,22.441l-5.82,2.732
		c-0.893,0.419-1.277,1.482-0.857,2.375c0.193,0.413,0.539,0.737,0.965,0.904l13.378,5.237c0.919,0.359,1.954-0.094,2.313-1.013
		c0.012-0.029,0.023-0.059,0.033-0.089l4.518-13.637c0.312-0.936-0.194-1.947-1.131-2.259
		C256.175,224.299,255.701,224.327,255.286,224.521L255.286,224.521z"/>
	<path fill="#FFFFFF" d="M252.85,249.977c-1.444,0.526-2.384,1.925-2.326,3.461c0.999,22.022-13.076,41.914-34.176,48.3
		l-2.299-7.674c-0.283-0.944-1.279-1.48-2.225-1.196c-0.436,0.131-0.807,0.425-1.033,0.82l-7.148,12.46
		c-0.49,0.855-0.194,1.946,0.662,2.436c0.025,0.016,0.053,0.03,0.08,0.044l12.824,6.478c0.881,0.445,1.954,0.092,2.398-0.788
		c0.207-0.408,0.248-0.88,0.117-1.317l-1.325-4.426c22.711-6.795,40.169-28.271,39.228-55.401c-0.078-1.962-1.732-3.489-3.695-3.41
		C253.563,249.776,253.197,249.849,252.85,249.977L252.85,249.977z"/>
	<path fill="#FFFFFF" d="M192.367,302.604c-23.45-5.339-37.75-25.341-37.75-46.854c-0.002-4.793,0.717-9.561,2.133-14.139
		l6.751,2.182c0.938,0.304,1.945-0.212,2.248-1.15c0.141-0.434,0.109-0.906-0.088-1.318l-6.198-12.961
		c-0.426-0.89-1.491-1.266-2.381-0.84c-0.029,0.014-0.057,0.027-0.085,0.043l-12.613,6.878c-0.866,0.474-1.184,1.558-0.712,2.424
		c0.219,0.4,0.583,0.703,1.018,0.843l5.262,1.703l-0.003,0.009c-5.641,18.177-1.496,37.977,10.963,52.362
		c7.617,8.803,17.593,15.002,29.905,17.787c1.926,0.435,3.839-0.775,4.273-2.702c0.058-0.257,0.087-0.52,0.087-0.784
		C195.17,304.41,194.003,302.964,192.367,302.604z"/>
	<g>
		<g id="Page-1_1_">
			<g id="_x30_01---Plastic">
				<path id="Shape_6_" fill="#FFFFFF" d="M229.983,226.204h-5.955c-1.645,0-2.978,1.333-2.978,2.978v7.939
					c0.001,2.27-1.539,4.249-3.739,4.804c-0.408,0.104-0.838-0.06-1.071-0.41l-0.628-0.947c-0.55-0.896-1.521-1.447-2.57-1.461
					h-5.815c-0.994-0.004-1.924,0.494-2.473,1.323l-0.727,1.091c-0.234,0.351-0.664,0.516-1.072,0.41
					c-2.201-0.557-3.742-2.539-3.738-4.81v-7.939c0-1.645-1.333-2.978-2.978-2.978h-5.955c-1.645,0-2.978,1.333-2.978,2.978v2.978
					h-4.962c-1.645,0-2.977,1.333-2.977,2.977v2.978c0,1.097,0.888,1.985,1.985,1.985v0.992c0,0.271-0.107,0.532-0.298,0.726
					c-0.168,0.171-0.397,0.267-0.638,0.267h-0.057c-3.837,0-6.947,3.111-6.947,6.948v4.962c-0.001,0.733,0.27,1.439,0.76,1.984
					c-0.49,0.546-0.761,1.253-0.76,1.985v3.97c-0.001,0.733,0.27,1.44,0.76,1.985c-0.49,0.544-0.761,1.252-0.76,1.985v3.969
					c-0.001,0.733,0.27,1.44,0.76,1.985c-0.49,0.545-0.761,1.252-0.76,1.984v6.947c0.003,2.739,2.223,4.96,4.962,4.963h47.639
					c3.835-0.004,6.942-3.112,6.947-6.947v-49.623C232.961,227.537,231.627,226.204,229.983,226.204z M181.353,235.136
					c0-0.548,0.444-0.992,0.992-0.992h7.94c0.548,0,0.992,0.444,0.992,0.992v2.978h-9.924V235.136z M175.397,249.031
					c-0.004-1.322,0.523-2.59,1.463-3.519c0.939-0.93,2.208-1.449,3.53-1.444c0.773,0.024,1.521-0.281,2.053-0.843
					c0.569-0.564,0.89-1.333,0.893-2.135v-0.992h5.955v0.992c0.003,0.802,0.324,1.57,0.894,2.135
					c0.536,0.538,1.265,0.841,2.024,0.843h0.06c1.316,0,2.578,0.522,3.509,1.454c0.931,0.931,1.454,2.192,1.454,3.509v2.977h-4.962
					c-1.645,0-2.978,1.333-2.978,2.978H176.39c-0.548,0-0.992-0.444-0.992-0.992V249.031z M217.081,255.978H192.27
					c-0.548,0-0.993-0.443-0.993-0.992c0-0.548,0.444-0.992,0.993-0.992h25.805c0.547,0,0.992,0.444,0.992,0.992
					c0,0.549-0.445,0.992-0.992,0.992H217.081z M175.397,257.963c0-0.548,0.444-0.993,0.992-0.993h13.677
					c0.56,0.63,1.36,0.99,2.203,0.993h0.132l0.708,4.962h-16.72c-0.548,0-0.992-0.443-0.992-0.992V257.963z M175.397,265.903
					c0-0.549,0.444-0.993,0.992-0.993h17.004l0.851,5.955H176.39c-0.548,0-0.992-0.444-0.992-0.993V265.903z M175.397,280.789
					v-6.947c0-0.547,0.444-0.992,0.992-0.992h18.139l1.478,10.347c0.029,0.194,0.078,0.385,0.145,0.57h-17.776
					C176.73,283.767,175.397,282.435,175.397,280.789z M203.187,283.767h-4.234c-0.494,0-0.912-0.363-0.982-0.852l-3.564-24.952
					h21.57l-2.666,24.917c-0.055,0.506-0.484,0.891-0.993,0.887H203.187z M230.976,278.805c-0.003,2.739-2.224,4.959-4.962,4.962
					h-10.896c0.08-0.218,0.135-0.444,0.163-0.675l2.693-25.129h0.1c1.644,0,2.977-1.333,2.977-2.978s-1.333-2.978-2.977-2.978
					h-18.857v-2.977c0.005-1.851-0.732-3.626-2.049-4.927c-1.324-1.29-3.098-2.015-4.947-2.021
					c-0.241,0.002-0.473-0.095-0.642-0.267c-0.193-0.192-0.301-0.453-0.302-0.726v-0.992c1.096,0,1.985-0.889,1.985-1.985v-2.978
					c0-1.644-1.333-2.977-2.977-2.977h-0.993v-2.978c0-0.548,0.444-0.992,0.993-0.992h5.955c0.548,0,0.993,0.444,0.993,0.992v7.939
					c-0.002,3.177,2.153,5.947,5.232,6.728c1.225,0.313,2.513-0.181,3.215-1.232l0.728-1.091c0.184-0.273,0.491-0.437,0.82-0.435
					h5.815c0.387,0.018,0.736,0.237,0.919,0.578l0.625,0.943c0.7,1.053,1.99,1.55,3.216,1.236c3.079-0.779,5.236-3.551,5.233-6.728
					v-7.939c0-0.548,0.445-0.992,0.993-0.992h5.955c0.548,0,0.992,0.444,0.992,0.992V278.805z"/>
			</g>
		</g>
	</g>
</g>
</svg>
