<?xml version="1.0" encoding="utf-8"?>
<!-- Generator: Adobe Illustrator 16.0.0, SVG Export Plug-In . SVG Version: 6.00 Build 0)  -->
<!DOCTYPE svg PUBLIC "-//W3C//DTD SVG 1.1//EN" "http://www.w3.org/Graphics/SVG/1.1/DTD/svg11.dtd">
<svg version="1.1" id="Layer_1" xmlns="http://www.w3.org/2000/svg" xmlns:xlink="http://www.w3.org/1999/xlink" x="0px" y="0px"
	 width="400px" height="400px" viewBox="0 0 400 400" enable-background="new 0 0 400 400" xml:space="preserve">
<g>
	<g>
		<g>
			<path fill="#FFFFFF" d="M339.959,333.153h-9.979V177.234c0-34.703-13.514-67.332-38.053-91.879
				c-23.039-23.038-53.207-36.357-85.533-37.899V31.413c0-3.786-3.07-6.856-6.855-6.856c-3.787,0-6.857,3.07-6.857,6.856v16.099
				c-32.025,1.783-61.878,15.136-84.683,38.027c-24.424,24.52-37.875,57.085-37.875,91.695v155.919H59.12
				c-3.787,0-6.856,3.07-6.856,6.856v28.652c0,3.785,3.07,6.855,6.856,6.855h280.839c3.785,0,6.855-3.07,6.855-6.855V340.01
				C346.814,336.223,343.746,333.153,339.959,333.153z M199.539,117.137c12.664,0,22.969,10.303,22.969,22.967
				s-10.305,22.967-22.969,22.967s-22.967-10.303-22.967-22.967S186.875,117.137,199.539,117.137z M83.836,177.234
				c0-61.515,48.239-112.167,108.847-115.982v42.825c-16.958,3.22-29.823,18.145-29.823,36.025
				c0,20.226,16.454,36.678,36.679,36.678s36.678-16.453,36.678-36.678c0-17.881-12.865-32.806-29.822-36.025V61.189
				c28.66,1.53,55.389,13.414,75.836,33.861c21.949,21.956,34.037,51.143,34.037,82.184v155.918H83.836V177.234z M333.104,361.806
				L333.104,361.806H65.976v-14.94h267.128V361.806z"/>
		</g>
	</g>
	<g>
		<g>
			<path fill="#FFFFFF" d="M301.195,244.057c-8.857,0-8.871,13.766,0,13.766C310.053,257.822,310.068,244.057,301.195,244.057z"/>
		</g>
	</g>
	<g>
		<g>
			<path fill="#FFFFFF" d="M301.195,264.477c-3.801,0-6.883,3.082-6.883,6.883v41.291c0,3.803,3.082,6.884,6.883,6.884
				c3.803,0,6.883-3.082,6.883-6.884v-41.291C308.078,267.559,304.996,264.477,301.195,264.477z"/>
		</g>
	</g>
	<g>
		<g id="Page-1">
			<g id="_x30_40---Trash" transform="translate(-1)">
				<path id="Shape" fill="#FFFFFF" d="M233.201,278.519c1.863-2.924,1.547-6.73-0.774-9.306c-2.321-2.574-6.073-3.285-9.175-1.735
					c-0.35-1.596-1.278-3.004-2.604-3.955l1.073-2.369c1.176,0.712,2.266,1.562,3.241,2.528c0.425,0.421,1.107,0.427,1.539,0.013
					c0.431-0.414,0.453-1.096,0.05-1.538c-1.166-1.173-2.482-2.187-3.914-3.017l0.918-2.022c1.882,1.003,3.663,2.188,5.314,3.538
					c0.301,0.256,0.715,0.331,1.086,0.2c0.371-0.133,0.645-0.453,0.716-0.841s-0.069-0.784-0.368-1.04
					c-1.808-1.484-3.762-2.78-5.832-3.867l0.912-2.009c2.23,1.149,4.352,2.496,6.345,4.022c0.478,0.377,1.171,0.295,1.548-0.183
					c0.377-0.479,0.295-1.173-0.184-1.549c-2.131-1.642-4.406-3.083-6.803-4.306l0.912-2.013c2.588,1.255,5.047,2.758,7.346,4.485
					c0.194,0.154,0.436,0.238,0.684,0.238c0.123,0.001,0.246-0.021,0.363-0.061c0.355-0.126,0.623-0.424,0.709-0.79
					c1.344-5.779-1.93-12.735-5.551-14.378c-3.623-1.643-11.018,0.479-14.477,5.296c-0.221,0.307-0.268,0.704-0.126,1.054
					c0.141,0.351,0.451,0.604,0.823,0.673c2.816,0.589,5.569,1.451,8.221,2.571l-0.914,2.013c-2.5-0.998-5.088-1.763-7.73-2.284
					c-0.599-0.11-1.172,0.287-1.281,0.886c-0.109,0.6,0.287,1.173,0.887,1.282c2.463,0.492,4.877,1.203,7.213,2.125l-0.912,2.011
					c-2.183-0.846-4.448-1.463-6.759-1.841c-0.393-0.068-0.792,0.084-1.042,0.395c-0.25,0.312-0.313,0.733-0.163,1.104
					s0.485,0.63,0.882,0.681c2.107,0.352,4.174,0.911,6.17,1.672l-0.918,2.021c-1.57-0.532-3.203-0.855-4.857-0.961h-0.051
					c-0.607-0.013-1.111,0.47-1.125,1.077c-0.014,0.608,0.469,1.113,1.078,1.127c1.373,0.092,2.729,0.351,4.041,0.771l-1.045,2.306
					c-1.125-0.358-2.328-0.393-3.47-0.098c-0.749-1.473-2.263-2.4-3.917-2.399c0.008-3.32-2.116-6.27-5.268-7.317
					c-3.15-1.048-6.618,0.042-8.6,2.705c-1.031-1.514-2.891-2.231-4.671-1.802l-1.07,0.26l-1.042-4.281
					c-0.288-1.182-1.479-1.907-2.661-1.618l-4.282,1.038c-1.181,0.29-1.906,1.48-1.62,2.662l1.043,4.28l-1.07,0.261
					c-1.135,0.275-2.114,0.992-2.722,1.991s-0.793,2.197-0.517,3.332l1.245,5.115c-2.744,0.136-5.206,1.723-6.465,4.163
					c-1.258,2.441-1.123,5.368,0.357,7.683c-2.64,1.452-3.959,4.51-3.206,7.427c0.753,2.917,3.387,4.953,6.4,4.946h52.877
					c3.014,0.007,5.646-2.029,6.4-4.946C237.161,283.028,235.842,279.971,233.201,278.519L233.201,278.519z M229.84,240.573
					c2.239,1.015,4.801,5.663,4.557,10.152c-4.611-3.194-9.762-5.529-15.203-6.893C222.414,240.69,227.604,239.557,229.84,240.573z
					 M185.59,280.153l-1.265-5.197c-0.069-0.285-0.021-0.586,0.132-0.836c0.148-0.246,0.388-0.424,0.667-0.494h0.014l12.844-3.127
					h0.018c0.588-0.139,1.178,0.223,1.322,0.81l1.076,4.433c-2.867,0.359-5.482,1.822-7.289,4.076
					C190.601,279.511,188.061,279.624,185.59,280.153z M198.269,267.025c0.143,0.583-0.21,1.173-0.792,1.322h-0.018l-12.845,3.128
					h-0.012c-0.588,0.139-1.178-0.224-1.322-0.811c-0.144-0.591,0.219-1.186,0.809-1.329l12.849-3.121
					C197.529,266.071,198.125,266.435,198.269,267.025z M184.206,251.176l4.282-1.044l1.042,4.283l-4.28,1.041L184.206,251.176z
					 M181.198,259.375c0.303-0.499,0.793-0.856,1.361-0.991l2.14-0.521l3.211-0.782l5.352-1.303
					c0.171-0.042,0.346-0.063,0.521-0.063c1.016-0.001,1.901,0.694,2.142,1.681l1.302,5.354c0.144,0.591-0.219,1.186-0.809,1.329
					l-12.845,3.129c-0.591,0.144-1.187-0.219-1.331-0.81l-1.303-5.359C180.8,260.472,180.893,259.872,181.198,259.375
					L181.198,259.375z M230.008,288.688H177.13c-2.21,0.008-4.083-1.629-4.371-3.821c-0.288-2.191,1.097-4.256,3.235-4.819
					c0.378-0.102,0.674-0.396,0.777-0.774c0.103-0.378-0.002-0.781-0.276-1.062c-1.546-1.585-1.991-3.941-1.132-5.982
					c0.86-2.04,2.857-3.368,5.071-3.369c0.326,0.002,0.65,0.036,0.97,0.099c-0.745,1.467-0.275,3.26,1.094,4.173
					c-0.393,0.717-0.504,1.552-0.314,2.345l1.297,5.329c-0.999,0.358-1.922,0.899-2.724,1.596c-0.31,0.316-0.401,0.787-0.23,1.196
					c0.17,0.407,0.569,0.675,1.012,0.677c0.287,0.001,0.563-0.108,0.771-0.307c0.031-0.031,3.147-2.906,11.211-1.899
					c0.459,0.054,0.902-0.181,1.117-0.591c0.077-0.154,2.072-3.806,8.929-3.806c0.609,0,1.102-0.493,1.102-1.102
					c0-0.607-0.492-1.101-1.102-1.101c-0.33,0-0.652,0.012-0.967,0.027l-1.146-4.717c-0.196-0.792-0.679-1.481-1.356-1.936
					c0.818-1.482,0.363-3.344-1.048-4.281c0.393-0.716,0.505-1.553,0.314-2.346l-0.98-4.024c0.905-2.518,3.489-4.021,6.124-3.563
					c2.637,0.458,4.563,2.741,4.567,5.417c0.005,0.37-0.032,0.739-0.11,1.102c-0.092,0.4,0.047,0.816,0.357,1.083
					c0.312,0.267,0.745,0.338,1.125,0.187c0.611-0.239,1.298-0.196,1.874,0.119c0.577,0.313,0.984,0.866,1.116,1.509
					c0.06,0.334,0.27,0.621,0.568,0.779c0.299,0.159,0.654,0.171,0.965,0.033c0.569-0.261,1.188-0.399,1.815-0.405
					c0.325,0.002,0.647,0.038,0.965,0.11l-2.138,4.712c-1.061-0.253-2.144-0.393-3.233-0.415c-0.608,0-1.103,0.493-1.103,1.102
					c0,0.607,0.494,1.101,1.103,1.101c1.103,0,4.288,0.338,5.831,1.88c0.432,0.418,1.119,0.413,1.545-0.013
					c0.424-0.425,0.43-1.112,0.012-1.544c-0.6-0.581-1.297-1.052-2.059-1.39l2-4.405c0.938,0.827,1.479,2.017,1.484,3.27
					c-0.004,0.092-0.014,0.185-0.028,0.276l-0.032,0.266c-0.045,0.454,0.195,0.889,0.604,1.092c0.408,0.205,0.9,0.135,1.236-0.173
					c2.205-1.937,5.541-1.806,7.588,0.299c2.045,2.105,2.08,5.444,0.08,7.592c-0.275,0.28-0.381,0.684-0.277,1.062
					c0.104,0.379,0.4,0.673,0.777,0.774c2.137,0.563,3.523,2.628,3.236,4.819C234.09,287.06,232.219,288.696,230.008,288.688
					L230.008,288.688z"/>
				<circle id="Oval" fill="#FFFFFF" cx="202.467" cy="283.18" r="1.102"/>
				<circle id="Oval_1_" fill="#FFFFFF" cx="189.248" cy="285.383" r="1.101"/>
				<circle id="Oval_2_" fill="#FFFFFF" cx="203.568" cy="260.047" r="1.102"/>
				<circle id="Oval_3_" fill="#FFFFFF" cx="206.874" cy="268.86" r="1.102"/>
				<circle id="Oval_4_" fill="#FFFFFF" cx="220.093" cy="284.282" r="1.102"/>
				<circle id="Oval_5_" fill="#FFFFFF" cx="224.5" cy="276.571" r="1.101"/>
				<path id="Shape_1_" fill="#FFFFFF" d="M228.474,243.582c0.249-0.555,0.005-1.206-0.55-1.456
					c-0.555-0.252-1.207-0.005-1.457,0.55s-0.006,1.207,0.549,1.458c0.268,0.119,0.57,0.129,0.844,0.026
					C228.133,244.056,228.354,243.849,228.474,243.582z"/>
				<path id="Shape_2_" fill="#FFFFFF" d="M211.279,275.47c-1.824,0-3.305,1.479-3.305,3.305c0,1.824,1.48,3.304,3.305,3.304
					c1.826,0,3.306-1.479,3.306-3.304C214.585,276.948,213.105,275.47,211.279,275.47z M211.279,279.876
					c-0.607,0-1.102-0.493-1.102-1.102c0-0.609,0.494-1.103,1.102-1.103c0.609,0,1.103,0.493,1.103,1.103
					C212.382,279.383,211.889,279.876,211.279,279.876z"/>
				<path id="Shape_3_" fill="#FFFFFF" d="M174.927,231.405c0,1.825,1.479,3.305,3.305,3.305h2.203
					c1.656,0.006,3.059-1.217,3.279-2.857c0.22-1.642-0.811-3.19-2.41-3.621l1.149-1.723c0.219-0.327,0.246-0.747,0.071-1.1
					c-0.174-0.354-0.523-0.586-0.917-0.611c-0.393-0.025-0.769,0.16-0.987,0.487l-1.287,1.934l-1.287-1.934
					c-0.338-0.505-1.021-0.643-1.528-0.306c-0.506,0.339-0.643,1.022-0.305,1.529l1.149,1.723
					C175.93,228.622,174.934,229.92,174.927,231.405z M178.232,230.304h2.203c0.608,0,1.102,0.493,1.102,1.102
					c0,0.607-0.494,1.102-1.102,1.102h-2.203c-0.608,0-1.102-0.494-1.102-1.102C177.13,230.797,177.624,230.304,178.232,230.304z"/>
				<path id="Shape_4_" fill="#FFFFFF" d="M195.857,243.523c0,1.824,1.48,3.304,3.305,3.304h2.203
					c1.656,0.007,3.058-1.216,3.279-2.857c0.22-1.641-0.811-3.191-2.41-3.621l1.149-1.723c0.218-0.327,0.245-0.746,0.071-1.1
					c-0.174-0.353-0.523-0.586-0.916-0.611c-0.394-0.025-0.77,0.161-0.988,0.488l-1.287,1.934l-1.287-1.931
					c-0.337-0.506-1.022-0.643-1.528-0.306c-0.506,0.339-0.643,1.022-0.305,1.528l1.149,1.724
					C196.862,240.743,195.866,242.039,195.857,243.523L195.857,243.523z M199.163,242.421h2.203c0.608,0,1.101,0.494,1.101,1.103
					c0,0.607-0.493,1.101-1.101,1.101h-2.203c-0.608,0-1.102-0.493-1.102-1.101C198.061,242.915,198.554,242.421,199.163,242.421z"
					/>
				<path id="Shape_5_" fill="#FFFFFF" d="M215.686,231.405c0,1.825,1.48,3.305,3.307,3.305h2.203
					c1.654,0.006,3.058-1.217,3.277-2.857c0.221-1.642-0.811-3.19-2.408-3.621l1.148-1.723c0.219-0.327,0.245-0.747,0.071-1.1
					c-0.175-0.354-0.524-0.586-0.917-0.611s-0.77,0.16-0.988,0.487l-1.286,1.934l-1.286-1.934c-0.338-0.505-1.021-0.643-1.529-0.306
					c-0.506,0.339-0.643,1.022-0.305,1.529l1.148,1.723C216.689,228.622,215.693,229.92,215.686,231.405z M218.992,230.304h2.203
					c0.607,0,1.102,0.493,1.102,1.102c0,0.607-0.494,1.102-1.102,1.102h-2.203c-0.609,0-1.102-0.494-1.102-1.102
					C217.891,230.797,218.383,230.304,218.992,230.304z"/>
			</g>
		</g>
	</g>
	<path fill="#FFFFFF" d="M254.924,226.21l-5.567,2.613l-0.052-0.084c-9.956-16.46-27.813-26.497-47.05-26.444
		c-13.703,0-27.242,5.002-38.383,15.654c-1.432,1.353-1.497,3.61-0.145,5.043c1.354,1.432,3.61,1.496,5.043,0.144
		c0.012-0.01,0.021-0.021,0.033-0.031c9.72-9.302,21.588-13.666,33.451-13.666c16.498-0.027,31.844,8.455,40.594,22.441l-5.82,2.732
		c-0.893,0.419-1.277,1.482-0.857,2.375c0.193,0.413,0.539,0.737,0.965,0.904l13.378,5.237c0.919,0.359,1.954-0.094,2.313-1.013
		c0.012-0.029,0.023-0.059,0.033-0.089l4.518-13.637c0.312-0.936-0.194-1.947-1.131-2.259
		C255.813,225.987,255.339,226.016,254.924,226.21L254.924,226.21z"/>
	<path fill="#FFFFFF" d="M252.487,251.665c-1.444,0.526-2.384,1.925-2.326,3.461c0.999,22.022-13.076,41.914-34.176,48.3
		l-2.299-7.674c-0.283-0.944-1.279-1.48-2.225-1.196c-0.436,0.131-0.807,0.425-1.033,0.82l-7.148,12.46
		c-0.49,0.855-0.194,1.946,0.662,2.436c0.025,0.016,0.053,0.03,0.08,0.044l12.824,6.478c0.881,0.445,1.954,0.092,2.398-0.788
		c0.207-0.408,0.248-0.88,0.117-1.317l-1.325-4.426c22.711-6.795,40.169-28.271,39.228-55.401c-0.078-1.962-1.732-3.489-3.695-3.41
		C253.2,251.465,252.835,251.537,252.487,251.665L252.487,251.665z"/>
	<path fill="#FFFFFF" d="M192.005,304.292c-23.451-5.339-37.751-25.341-37.751-46.854c-0.003-4.793,0.717-9.561,2.133-14.139
		l6.751,2.182c0.938,0.304,1.945-0.212,2.248-1.15c0.141-0.434,0.109-0.906-0.088-1.318l-6.197-12.961
		c-0.426-0.89-1.492-1.266-2.381-0.84c-0.029,0.014-0.058,0.027-0.086,0.043l-12.612,6.878c-0.866,0.474-1.185,1.558-0.712,2.424
		c0.219,0.4,0.583,0.703,1.018,0.843l5.262,1.703l-0.002,0.009c-5.642,18.177-1.496,37.977,10.963,52.362
		c7.617,8.803,17.593,15.002,29.905,17.787c1.927,0.435,3.839-0.775,4.272-2.702c0.059-0.257,0.088-0.52,0.088-0.784
		C194.808,306.099,193.641,304.652,192.005,304.292z"/>
</g>
</svg>
