<?xml version="1.0" encoding="utf-8"?>
<!-- Generator: Adobe Illustrator 16.0.0, SVG Export Plug-In . SVG Version: 6.00 Build 0)  -->
<!DOCTYPE svg PUBLIC "-//W3C//DTD SVG 1.1//EN" "http://www.w3.org/Graphics/SVG/1.1/DTD/svg11.dtd">
<svg version="1.1" id="Layer_1" xmlns="http://www.w3.org/2000/svg" xmlns:xlink="http://www.w3.org/1999/xlink" x="0px" y="0px"
	 width="400px" height="400px" viewBox="0 0 400 400" enable-background="new 0 0 400 400" xml:space="preserve">
<g>
	<path fill="#FCFCFC" d="M386.719,364.219l-92.031-92.031c22.813-27.813,36.563-63.438,36.563-102.266
		c0-89.063-72.266-161.328-161.328-161.328C80.781,8.594,8.594,80.859,8.594,169.922S80.781,331.25,169.922,331.25
		c38.828,0,74.375-13.672,102.188-36.484l92.031,91.953c6.25,6.25,16.328,6.25,22.578,0
		C392.969,380.547,392.969,370.391,386.719,364.219z M169.922,299.141c-71.328,0-129.297-57.969-129.297-129.219
		S98.594,40.625,169.922,40.625c71.25,0,129.297,58.047,129.297,129.297S241.172,299.141,169.922,299.141z"/>
</g>
</svg>
